<?xml version="1.0" encoding="UTF-8"?><svg id="Artwork" xmlns="http://www.w3.org/2000/svg" viewBox="0 0 825.38 260.54"><path d="M383.61,61.47v15.07h-74.8v46.14h66.93v15.07h-66.93v61.21h-18.13V61.47h92.94Z" fill="#0a1927"/><rect x="392.93" y="61.47" width="17.1" height="15.07" fill="#0a1927"/><rect x="392.93" y="99.96" width="17.1" height="99.01" fill="#0a1927"/><path d="M438.66,99.96v12.73h2.49c3.4-9.66,7.81-13.12,21.25-13.12h16v13.99h-17.9c-13.99,0-21.48,7.93-21.35,27.22v58.19h-17.1v-99.01h16.62Z" fill="#0a1927"/><path d="M527.13,97.63c29.34,0,45.67,18.36,45.67,47.51v7.97h-77.15c.39,21.76,12.24,35.27,31.48,35.27s26.72-10.88,28.27-20.4h15.35v3.71c-3.02,11.82-13.89,29.61-43.43,29.61s-48.19-18.17-48.19-51.88,18.95-51.79,48-51.79ZM556.47,140.57c-.19-17.98-10.2-30.02-29.44-30.02s-29.73,12.15-31.09,30.02h60.53Z" fill="#0a1927"/><path d="M647.68,74.02h-30.43l-1.91,1.91v24.02h28.74v13.6h-28.47v85.41h-17.1v-85.41h-24.19v-13.6h24.19v-14.29c0-16.13,9.23-24.19,25.46-24.19h23.71v12.55Z" fill="#0a1927"/><path d="M673.24,61.47v137.49h-17.1V61.47h17.1Z" fill="#0a1927"/><path d="M763.35,99.95h16.31v3.72l-42.44,116.43c-4.95,13.85-11.48,18.41-23.36,18.41h-16.63v-14.85h15.64c5.94,0,8.12-1.78,10.29-7.92l5.74-16.82h-7.42l-39.21-95.25v-3.72h16.85l32.46,83.53h2.67l29.1-83.53Z" fill="#0a1927"/><polygon points="82.44 56.13 100.48 45.72 192 204.31 173.99 214.71 82.44 56.13" fill="#0a1927"/><path d="M147.04,92.05c-2.26,4.19-2.6,9.06.19,13.87l8.08,13.86,8.03,13.89c2.79,4.81,7.19,6.88,11.95,7h53.28s0-20.76,0-20.76h-64.17c-1.99-.03-2.32-.27-3.56-2.4l-.41-.71-.41-.71c-1.24-2.13-1.3-2.55-.34-4.29l31.83-55.7-17.98-10.38-26.51,46.33Z" fill="#0a1927"/><path d="M127.26,168.5c2.26-4.19,2.6-9.06-.19-13.87l-8.08-13.86-8.03-13.89c-2.79-4.81-7.19-6.88-11.95-7h-53.28s0,20.76,0,20.76h64.17c1.99.03,2.32.27,3.56,2.4l.41.71.41.71c1.24,2.13,1.3,2.55.34,4.29l-31.83,55.7,17.98,10.38,26.51-46.33Z" fill="#0a1927"/></svg>