<?xml version="1.0" encoding="UTF-8"?><svg id="Artwork" xmlns="http://www.w3.org/2000/svg" viewBox="0 0 445.84 423.29"><polygon points="133.99 91.23 163.31 74.31 312.07 332.08 282.8 348.98 133.99 91.23" fill="#0a1927"/><path d="M239,149.61c-3.67,6.81-4.23,14.72.31,22.54l13.14,22.53,13.06,22.58c4.54,7.82,11.69,11.19,19.43,11.38h86.61s0-33.74,0-33.74h-104.3c-3.24-.05-3.78-.44-5.79-3.9l-.67-1.15-.67-1.15c-2.01-3.46-2.11-4.14-.55-6.98l51.74-90.54-29.22-16.87-43.08,75.3Z" fill="#0a1927"/><path d="M206.84,273.87c3.67-6.81,4.23-14.72-.31-22.54l-13.14-22.53-13.06-22.58c-4.54-7.82-11.69-11.19-19.43-11.38h-86.61s0,33.74,0,33.74h104.3c3.24.05,3.78.44,5.79,3.9l.67,1.15.67,1.15c2.01,3.46,2.11,4.14.55,6.98l-51.74,90.54,29.22,16.87,43.08-75.3Z" fill="#0a1927"/></svg>