<?xml version="1.0" encoding="UTF-8"?><svg id="Artwork" xmlns="http://www.w3.org/2000/svg" viewBox="0 0 488.42 425.39"><path d="M121.2,268.08v12.24h-60.73v37.46h54.34v12.23h-54.34v49.69h-14.72v-111.62h75.45Z" fill="#0a1927"/><rect x="128.77" y="268.08" width="13.88" height="12.24" fill="#0a1927"/><rect x="128.77" y="299.32" width="13.88" height="80.38" fill="#0a1927"/><path d="M165.9,299.32v10.33h2.02c2.76-7.84,6.34-10.65,17.25-10.65h12.99v11.36h-14.53c-11.36,0-17.44,6.44-17.33,22.09v47.24h-13.88v-80.38h13.49Z" fill="#0a1927"/><path d="M237.71,297.43c23.82,0,37.07,14.91,37.07,38.57v6.47h-62.63c.32,17.67,9.94,28.63,25.56,28.63s21.69-8.83,22.95-16.56h12.46v3.01c-2.45,9.59-11.28,24.04-35.26,24.04s-39.12-14.75-39.12-42.12,15.38-42.04,38.97-42.04ZM261.53,332.29c-.16-14.59-8.28-24.37-23.9-24.37s-24.14,9.86-25.24,24.37h49.14Z" fill="#0a1927"/><path d="M335.58,278.26h-24.7l-1.55,1.55v19.5h23.33v11.04h-23.11v69.34h-13.88v-69.34h-19.64v-11.04h19.64v-11.6c0-13.09,7.49-19.64,20.67-19.64h19.25v10.19Z" fill="#0a1927"/><path d="M356.33,268.08v111.62h-13.88v-111.62h13.88Z" fill="#0a1927"/><path d="M429.48,299.31h13.24v3.02l-34.45,94.52c-4.02,11.25-9.32,14.94-18.96,14.94h-13.5v-12.05h12.69c4.82,0,6.59-1.45,8.36-6.43l4.66-13.66h-6.02l-31.83-77.32v-3.02h13.68l26.35,67.81h2.17l23.62-67.81Z" fill="#0a1927"/><polygon points="189.53 56.11 207.57 45.69 299.09 204.29 281.08 214.69 189.53 56.11" fill="#0a1927"/><path d="M254.13,92.02c-2.26,4.19-2.6,9.06.19,13.87l8.08,13.86,8.03,13.89c2.79,4.81,7.19,6.88,11.95,7h53.28s0-20.76,0-20.76h-64.17c-1.99-.03-2.32-.27-3.56-2.4l-.41-.71-.41-.71c-1.24-2.13-1.3-2.55-.34-4.29l31.83-55.7-17.98-10.38-26.51,46.33Z" fill="#0a1927"/><path d="M234.35,168.47c2.26-4.19,2.6-9.06-.19-13.87l-8.08-13.86-8.03-13.89c-2.79-4.81-7.19-6.88-11.95-7h-53.28s0,20.76,0,20.76h64.17c1.99.03,2.32.27,3.56,2.4l.41.71.41.71c1.24,2.13,1.3,2.55.34,4.29l-31.83,55.7,17.98,10.38,26.51-46.33Z" fill="#0a1927"/></svg>